<svg width="25" height="25" xmlns="http://www.w3.org/2000/svg"><path d="M14.458 0c.089 0 .246.005.463.02.355.024.75.066 1.174.133 1.215.19 2.43.535 3.571 1.072C22.98 2.786 25 5.643 25 10.035c0 4.277-1.49 7.722-4.446 10.281l-.196.166-.087.06-4.041 2.219 5.513.354-.064 1.244-7.627-.49-.984-.064.56-.911 4.333-7.061.914.706-3.132 5.103 3.99-2.192.152-.128c2.615-2.268 3.943-5.257 4.003-9.017l.002-.27c0-3.844-1.724-6.281-4.653-7.662a12.21 12.21 0 00-3.295-.987 12.203 12.203 0 00-1.45-.14h-.034V0zM3.437.641l7.741.254 1 .032-.545.92-4.218 7.125-.943-.672L9.52 3.15l-4.001 2.3-.14.125c-2.484 2.271-3.71 5.223-3.69 8.904l.003.264c.079 3.782 1.816 6.166 4.714 7.499 1.03.473 2.138.777 3.253.945.632.095 1.148.13 1.492.134h.092l.015 1.234h-.112c7.361.04-2.54-.51-3.669-1.03-4.787-1.653-6.82-4.444-6.91-8.754-.087-4.18 1.285-7.58 4.098-10.15l.19-.17.09-.065 4.052-2.328-5.594-.184.034-1.233z" fill="#fff"  fill-rule="nonzero"/></svg>